<svg width="1720" height="600" viewBox="0 0 1720 600" fill="none" xmlns="http://www.w3.org/2000/svg">
<g clip-path="url(#clip0_221_19)">
<rect width="1720" height="600" fill="#E8E2D4"/>
<path d="M1412.02 704V691.558C1412.02 592.97 1492.17 512.77 1590.68 512.77H1602.98V547.607H1590.68C1511.16 547.607 1446.46 612.18 1446.46 691.558V704H1412.02Z" fill="#F7F1E3"/>
<path d="M1299.78 703.999V691.558C1299.78 550.318 1184.71 435.431 1043.3 435.431H1031V400.594H1043.3C1184.71 400.569 1299.78 285.656 1299.78 144.442V132H1334.22V144.442C1334.22 285.681 1449.29 400.569 1590.7 400.569H1603V435.406H1590.7C1449.29 435.431 1334.22 550.343 1334.22 691.558V703.999H1299.78ZM1142.62 418.012C1182.38 432.42 1218.59 455.437 1249 485.87C1279.53 516.402 1302.61 552.782 1316.98 592.72C1331.37 552.782 1354.42 516.402 1384.95 485.87C1415.38 455.437 1451.57 432.42 1491.33 418.012C1451.57 403.605 1415.36 380.587 1384.95 350.155C1354.42 319.622 1331.34 283.243 1316.98 243.304C1302.58 283.243 1279.53 319.622 1249 350.155C1218.57 380.587 1182.38 403.605 1142.62 418.012Z" fill="#F7F1E3"/>
<path d="M1590.68 323.231C1492.17 323.231 1412.02 243.031 1412.02 144.442V132H1446.46V144.442C1446.46 223.821 1511.16 288.394 1590.68 288.394H1602.98V323.231H1590.68Z" fill="#F7F1E3"/>
<path d="M1187.52 703.999V691.557C1187.52 612.178 1122.82 547.605 1043.3 547.605H1031V512.768H1043.3C1141.81 512.768 1221.96 592.968 1221.96 691.557V703.999H1187.52Z" fill="#F7F1E3"/>
<path d="M1031 323.23V288.393H1043.3C1122.82 288.393 1187.52 223.82 1187.52 144.442V132H1221.96V144.442C1221.96 243.031 1141.81 323.23 1043.3 323.23H1031Z" fill="#F7F1E3"/>
</g>
<defs>
<clipPath id="clip0_221_19">
<rect width="1720" height="600" fill="white"/>
</clipPath>
</defs>
</svg>
